<?xml version="1.0" encoding="UTF-8" standalone="no"?>
<!DOCTYPE svg PUBLIC "-//W3C//DTD SVG 1.1//EN" "http://www.w3.org/Graphics/SVG/1.1/DTD/svg11.dtd">
<svg width="100%" height="100%" viewBox="0 0 120 120" version="1.1" xmlns="http://www.w3.org/2000/svg" xmlns:xlink="http://www.w3.org/1999/xlink" xml:space="preserve" xmlns:serif="http://www.serif.com/" style="fill-rule:evenodd;clip-rule:evenodd;stroke-linejoin:round;stroke-miterlimit:2;">
    <g transform="matrix(1,0,0,1,-4.87868,-129.484)">
        <g id="Icon-only" serif:id="Icon only" transform="matrix(0.970409,0,0,1.00701,4.87723,-3.29838)">
            <rect x="0.001" y="131.859" width="123.659" height="119.165" style="fill:none;"/>
            <g transform="matrix(1.03049,0,0,0.993041,-5.02595,3.27542)">
                <g id="Logo">
                    <g id="Parts">
                        <path id="box" d="M29.614,137.161C26.812,138.324 24.411,139.362 20.909,142.488C20.467,142.882 20.04,143.291 19.626,143.717C14.822,148.629 12.002,156.658 10.443,164.618C10.16,166.064 10.018,166.831 9.751,168.742C8.786,175.66 8.503,182.819 8.317,189.195C7.877,204.115 8.207,225.644 16.936,236.193C26.936,248.193 38.246,245.623 54.855,246.093C73.304,246.623 106.203,245.353 116.853,231.564C124.193,222.064 120.653,205.415 121.033,192.395C121.214,186.17 121.33,178.934 120.744,171.888C120.651,170.775 120.466,169.018 120.391,168.398C119.737,162.964 118.59,157.769 116.646,153.381C115.107,149.908 113.343,147.787 113.343,147.787C107.943,140.937 99.643,137.287 90.454,135.297C89.396,135.068 87.004,134.697 84.302,134.331C80.946,133.875 79.113,133.509 73.87,133.209C71.336,133.064 68.815,132.963 66.365,132.897C54.424,132.557 40.394,132.687 29.614,137.161ZM106.611,189.549C104.826,189.175 103.081,187.183 103.012,183.96C102.844,175.993 102.69,172.635 102.071,166.062C101.895,164.198 101.265,161.123 100.083,159.668C99.364,158.783 98.438,158.386 97.474,158.186C96.552,157.995 95.595,157.985 94.757,157.891L94.757,153.051C97.236,153.054 101.38,153.222 104.199,157.45C105.406,159.261 106.292,162.043 106.599,164.76C107.375,171.632 107.05,176.681 107.951,183.506C108.134,184.89 108.839,185.608 110.043,185.981C111.203,186.34 112.838,186.372 114.923,186.373L114.923,192.725C112.838,192.726 111.203,192.757 110.043,193.117C108.839,193.489 108.134,194.208 107.951,195.592C107.05,202.416 107.375,207.466 106.599,214.338C106.292,217.054 105.406,219.837 104.199,221.647C101.38,225.876 97.236,226.044 94.757,226.047L94.757,221.207C95.595,221.113 96.552,221.103 97.474,220.912C98.438,220.712 99.364,220.315 100.083,219.43C101.265,217.975 101.895,214.9 102.071,213.036C102.69,206.463 102.844,203.105 103.012,195.137C103.081,191.915 104.826,189.923 106.611,189.549ZM14.831,192.596L14.831,186.244C16.916,186.243 18.551,186.212 19.712,185.852C20.915,185.48 21.62,184.761 21.803,183.377C22.705,176.553 22.379,171.503 23.155,164.631C23.462,161.915 24.349,159.132 25.556,157.322C28.375,153.093 32.519,152.925 34.997,152.922L34.997,157.762C34.159,157.856 33.202,157.866 32.281,158.057C31.317,158.257 30.391,158.654 29.671,159.539C28.489,160.994 27.859,164.069 27.684,165.933C27.065,172.506 26.911,175.864 26.742,183.832C26.674,187.054 24.928,189.046 23.143,189.42C24.928,189.794 26.674,191.786 26.742,195.009C26.911,202.976 27.065,206.334 27.684,212.907C27.859,214.771 28.489,217.846 29.671,219.301C30.391,220.186 31.317,220.583 32.281,220.783C33.202,220.974 34.159,220.984 34.997,221.078L34.997,225.918C32.519,225.915 28.375,225.747 25.556,221.519C24.349,219.708 23.462,216.926 23.155,214.209C22.379,207.337 22.705,202.288 21.803,195.463C21.62,194.079 20.915,193.361 19.712,192.988C18.551,192.629 16.916,192.597 14.831,192.596ZM38.98,204.737L65.083,219.29L90.772,204.594L90.772,175.062L64.94,160.249L39.123,175.061L38.98,204.737ZM44.633,203.694L55.241,197.985C55.241,197.985 63.111,202.171 63.111,202.171C63.111,202.171 63.212,214.047 63.212,214.047L44.633,203.694ZM66.763,202.282L74.437,197.926C74.437,197.926 85.14,203.604 85.14,203.604C85.14,203.604 66.865,214.044 66.865,214.044L66.763,202.282ZM42.768,179.184L53.508,184.927C53.508,184.927 53.508,194.743 53.508,194.743C53.508,194.743 42.665,200.588 42.665,200.588L42.768,179.184ZM76.243,194.725L76.149,184.925C76.149,184.925 87.12,179.06 87.12,179.06C87.12,179.06 87.12,200.498 87.12,200.498L76.243,194.725ZM66.663,189.978L72.492,186.861C72.492,186.861 72.577,194.767 72.577,194.767C72.577,194.767 66.738,198.082 66.738,198.082L66.663,189.978ZM57.161,194.848L57.161,186.867C57.161,186.867 62.985,189.981 62.985,189.981C62.985,189.981 63.06,197.99 63.06,197.99L57.161,194.848ZM59.325,183.874L65.062,180.749C65.062,180.749 70.471,183.789 70.471,183.789C70.471,183.789 64.814,186.812 64.814,186.812L59.325,183.874ZM44.721,176.078L63.129,165.514C63.129,165.514 63.219,177.581 63.219,177.581C63.219,177.581 55.451,181.821 55.451,181.821L44.721,176.078ZM66.896,177.583L66.806,165.536C66.806,165.536 85.045,176.002 85.045,176.002C85.045,176.002 74.307,181.743 74.307,181.743L66.896,177.583Z" style="fill:rgb(0,102,102);"/>
                    </g>
                </g>
            </g>
        </g>
    </g>
</svg>
