<?xml version="1.0" encoding="UTF-8" standalone="no"?>
<!DOCTYPE svg PUBLIC "-//W3C//DTD SVG 1.1//EN" "http://www.w3.org/Graphics/SVG/1.1/DTD/svg11.dtd">
<svg width="100%" height="100%" viewBox="0 0 340 114" version="1.1" xmlns="http://www.w3.org/2000/svg" xmlns:xlink="http://www.w3.org/1999/xlink" xml:space="preserve" xmlns:serif="http://www.serif.com/" style="fill-rule:evenodd;clip-rule:evenodd;stroke-linejoin:round;stroke-miterlimit:2;">
    <g transform="matrix(1,0,0,1,-8.19601,0)">
        <g id="Full-Logo" serif:id="Full Logo" transform="matrix(1,0,0,1,8.19451,-0.00345913)">
            <rect x="0.001" y="0.003" width="339.391" height="113.408" style="fill:none;"/>
            <clipPath id="_clip1">
                <rect x="0.001" y="0.003" width="339.391" height="113.408"/>
            </clipPath>
            <g clip-path="url(#_clip1)">
                <g id="Full-Logo1" serif:id="Full Logo">
                    <g transform="matrix(1,0,0,1,-8.19301,-132.774)">
                        <g id="Logo">
                            <g id="Parts">
                                <path id="box" d="M29.614,137.161C26.812,138.324 24.411,139.362 20.909,142.488C20.467,142.882 20.04,143.291 19.626,143.717C14.822,148.629 12.002,156.658 10.443,164.618C10.16,166.064 10.018,166.831 9.751,168.742C8.786,175.66 8.503,182.819 8.317,189.195C7.877,204.115 8.207,225.644 16.936,236.193C26.936,248.193 38.246,245.623 54.855,246.093C73.304,246.623 106.203,245.353 116.853,231.564C124.193,222.064 120.653,205.415 121.033,192.395C121.214,186.17 121.33,178.934 120.744,171.888C120.651,170.775 120.466,169.018 120.391,168.398C119.737,162.964 118.59,157.769 116.646,153.381C115.107,149.908 113.343,147.787 113.343,147.787C107.943,140.937 99.643,137.287 90.454,135.297C89.396,135.068 87.004,134.697 84.302,134.331C80.946,133.875 79.113,133.509 73.87,133.209C71.336,133.064 68.815,132.963 66.365,132.897C54.424,132.557 40.394,132.687 29.614,137.161ZM106.611,189.549C104.826,189.175 103.081,187.183 103.012,183.96C102.844,175.993 102.69,172.635 102.071,166.062C101.895,164.198 101.265,161.123 100.083,159.668C99.364,158.783 98.438,158.386 97.474,158.186C96.552,157.995 95.595,157.985 94.757,157.891L94.757,153.051C97.236,153.054 101.38,153.222 104.199,157.45C105.406,159.261 106.292,162.043 106.599,164.76C107.375,171.632 107.05,176.681 107.951,183.506C108.134,184.89 108.839,185.608 110.043,185.981C111.203,186.34 112.838,186.372 114.923,186.373L114.923,192.725C112.838,192.726 111.203,192.757 110.043,193.117C108.839,193.489 108.134,194.208 107.951,195.592C107.05,202.416 107.375,207.466 106.599,214.338C106.292,217.054 105.406,219.837 104.199,221.647C101.38,225.876 97.236,226.044 94.757,226.047L94.757,221.207C95.595,221.113 96.552,221.103 97.474,220.912C98.438,220.712 99.364,220.315 100.083,219.43C101.265,217.975 101.895,214.9 102.071,213.036C102.69,206.463 102.844,203.105 103.012,195.137C103.081,191.915 104.826,189.923 106.611,189.549ZM14.831,192.596L14.831,186.244C16.916,186.243 18.551,186.212 19.712,185.852C20.915,185.48 21.62,184.761 21.803,183.377C22.705,176.553 22.379,171.503 23.155,164.631C23.462,161.915 24.349,159.132 25.556,157.322C28.375,153.093 32.519,152.925 34.997,152.922L34.997,157.762C34.159,157.856 33.202,157.866 32.281,158.057C31.317,158.257 30.391,158.654 29.671,159.539C28.489,160.994 27.859,164.069 27.684,165.933C27.065,172.506 26.911,175.864 26.742,183.832C26.674,187.054 24.928,189.046 23.143,189.42C24.928,189.794 26.674,191.786 26.742,195.009C26.911,202.976 27.065,206.334 27.684,212.907C27.859,214.771 28.489,217.846 29.671,219.301C30.391,220.186 31.317,220.583 32.281,220.783C33.202,220.974 34.159,220.984 34.997,221.078L34.997,225.918C32.519,225.915 28.375,225.747 25.556,221.519C24.349,219.708 23.462,216.926 23.155,214.209C22.379,207.337 22.705,202.288 21.803,195.463C21.62,194.079 20.915,193.361 19.712,192.988C18.551,192.629 16.916,192.597 14.831,192.596ZM38.98,204.737L65.083,219.29L90.772,204.594L90.772,175.062L64.94,160.249L39.123,175.061L38.98,204.737ZM44.633,203.694L55.241,197.985C55.241,197.985 63.111,202.171 63.111,202.171C63.111,202.171 63.212,214.047 63.212,214.047L44.633,203.694ZM66.763,202.282L74.437,197.926C74.437,197.926 85.14,203.604 85.14,203.604C85.14,203.604 66.865,214.044 66.865,214.044L66.763,202.282ZM42.768,179.184L53.508,184.927C53.508,184.927 53.508,194.743 53.508,194.743C53.508,194.743 42.665,200.588 42.665,200.588L42.768,179.184ZM76.243,194.725L76.149,184.925C76.149,184.925 87.12,179.06 87.12,179.06C87.12,179.06 87.12,200.498 87.12,200.498L76.243,194.725ZM66.663,189.978L72.492,186.861C72.492,186.861 72.577,194.767 72.577,194.767C72.577,194.767 66.738,198.082 66.738,198.082L66.663,189.978ZM57.161,194.848L57.161,186.867C57.161,186.867 62.985,189.981 62.985,189.981C62.985,189.981 63.06,197.99 63.06,197.99L57.161,194.848ZM59.325,183.874L65.062,180.749C65.062,180.749 70.471,183.789 70.471,183.789C70.471,183.789 64.814,186.812 64.814,186.812L59.325,183.874ZM44.721,176.078L63.129,165.514C63.129,165.514 63.219,177.581 63.219,177.581C63.219,177.581 55.451,181.821 55.451,181.821L44.721,176.078ZM66.896,177.583L66.806,165.536C66.806,165.536 85.045,176.002 85.045,176.002C85.045,176.002 74.307,181.743 74.307,181.743L66.896,177.583Z" style="fill:rgb(0,102,102);"/>
                            </g>
                        </g>
                    </g>
                    <g transform="matrix(1,0,0,1,-8.19451,0.00345913)">
                        <g id="Text">
                            <path id="utopya--correct-weight-" serif:id="utopya (correct weight)" d="M273.004,41.411C271.236,41.411 269.552,41.825 267.952,42.653C266.85,43.224 265.837,43.989 264.913,44.95C264.912,44.951 264.628,42.183 264.628,42.183L257.7,42.183L257.7,85.788L265.528,84.903L265.528,71.998C267.386,73.525 269.661,74.293 272.357,74.293C275.075,74.293 277.343,73.552 279.17,72.093C280.972,70.655 282.337,68.685 283.252,66.172C284.143,63.727 284.593,60.939 284.593,57.808C284.593,54.557 284.223,51.73 283.492,49.326C282.731,46.826 281.496,44.893 279.806,43.515C278.103,42.127 275.84,41.411 273.004,41.411ZM316.633,43.176L316.974,42.183L308.852,42.183L301.788,65.736C301.788,65.736 294.832,42.183 294.832,42.183L286.499,42.183L297.066,73.522L298.636,73.522C298.226,74.457 297.771,75.278 297.27,75.983C296.629,76.884 295.765,77.611 294.681,78.168C293.542,78.755 292.008,79.186 290.083,79.48L289.325,79.595L290.402,85.768L291.085,85.711C293.997,85.469 296.433,84.788 298.397,83.685C300.379,82.573 302.007,81.109 303.283,79.296C304.534,77.519 305.557,75.466 306.349,73.135C306.348,73.137 316.633,43.176 316.633,43.176ZM344.721,65.468L344.721,52.145C344.721,48.774 343.64,46.147 341.522,44.247C339.443,42.383 336.304,41.411 332.081,41.411C330.518,41.411 328.816,41.575 326.975,41.907C325.14,42.237 323.266,42.759 321.355,43.473L320.667,43.73L322.717,49.599L323.423,49.355C324.909,48.842 326.329,48.463 327.683,48.219C329.02,47.978 330.16,47.855 331.101,47.855C333.021,47.855 334.515,48.209 335.571,48.972C336.556,49.684 337.002,50.876 337.002,52.508L337.002,53.728C337.002,53.728 333.495,53.728 333.495,53.728C328.747,53.728 325.103,54.635 322.55,56.394C319.886,58.228 318.546,60.846 318.546,64.256C318.546,67.249 319.511,69.664 321.413,71.514C323.302,73.352 325.859,74.293 329.099,74.293C331.111,74.293 333,73.925 334.766,73.192C336.194,72.599 337.426,71.776 338.46,70.723C339.022,71.667 339.75,72.402 340.636,72.934C341.777,73.62 343.136,74.06 344.716,74.243L345.323,74.313L347.164,68.734L346.459,68.495C345.86,68.292 345.41,68.002 345.132,67.592C344.832,67.151 344.721,66.437 344.721,65.468ZM239.059,41.411C236.007,41.411 233.421,42.121 231.295,43.52C229.163,44.921 227.541,46.867 226.434,49.361C225.35,51.804 224.801,54.638 224.801,57.865C224.801,61.181 225.348,64.056 226.427,66.494C227.531,68.989 229.151,70.909 231.277,72.263C233.392,73.609 235.97,74.293 239.018,74.293C242.071,74.293 244.65,73.588 246.762,72.202C248.88,70.812 250.496,68.869 251.603,66.369C252.687,63.921 253.235,61.068 253.235,57.808C253.235,54.527 252.696,51.674 251.632,49.246C250.542,46.762 248.936,44.838 246.82,43.468C244.715,42.105 242.13,41.411 239.059,41.411ZM221.052,71.812L221.636,71.433L218.667,66.004L218.01,66.362C217.297,66.75 216.51,67.065 215.65,67.308C214.796,67.549 213.86,67.667 212.843,67.667C211.262,67.667 210.112,67.384 209.421,66.71C208.745,66.05 208.447,65.032 208.447,63.683C208.447,63.683 208.447,48.298 208.447,48.298C208.448,48.298 217.699,48.298 217.699,48.298L218.607,42.183L208.447,42.183C208.447,42.183 208.447,34.665 208.447,34.665L200.619,35.608L200.619,42.183C200.619,42.183 193.981,42.183 193.981,42.183L193.981,48.298L200.619,48.298C200.619,48.298 200.619,63.723 200.619,63.723C200.619,66.886 201.602,69.43 203.536,71.369C205.458,73.295 208.259,74.293 211.964,74.293C213.682,74.293 215.34,74.065 216.937,73.609C218.548,73.149 219.919,72.548 221.052,71.812ZM171.456,63.796L171.456,42.183L163.628,42.183L163.628,64.572C163.628,67.577 164.419,69.931 165.95,71.649C167.498,73.386 169.827,74.293 172.966,74.293C174.845,74.293 176.683,73.879 178.479,73.046C179.736,72.463 180.842,71.699 181.797,70.754C181.797,70.754 182.084,73.522 182.084,73.522L188.979,73.522L188.979,42.183L181.151,42.183L181.151,64.301C180.481,65.303 179.598,66.152 178.503,66.853C177.375,67.576 176.2,67.942 174.975,67.942C173.794,67.942 172.898,67.672 172.313,67.053C171.705,66.409 171.456,65.313 171.456,63.796ZM331.028,68.127C329.588,68.127 328.489,67.804 327.755,67.083C327.029,66.37 326.697,65.331 326.697,63.987C326.697,62.501 327.231,61.331 328.32,60.488C329.502,59.572 331.486,59.162 334.249,59.162L337.002,59.162C337.002,59.162 337.002,64.786 337.002,64.786C336.332,65.815 335.472,66.622 334.419,67.204C333.311,67.817 332.181,68.127 331.028,68.127ZM239.059,47.814C241.044,47.814 242.539,48.56 243.526,50.083C244.597,51.735 245.098,54.315 245.098,57.808C245.098,61.351 244.595,63.958 243.519,65.614C242.527,67.143 241.021,67.89 239.018,67.89C237.015,67.89 235.51,67.143 234.517,65.614C233.442,63.958 232.939,61.37 232.939,57.865C232.939,54.345 233.448,51.75 234.536,50.094C235.541,48.564 237.054,47.814 239.059,47.814ZM271.264,47.774C272.39,47.774 273.333,48.077 274.084,48.708C274.868,49.366 275.433,50.412 275.824,51.823C276.249,53.358 276.455,55.365 276.455,57.84C276.455,61.392 275.966,63.99 274.915,65.619C273.953,67.112 272.537,67.85 270.674,67.85C269.584,67.85 268.599,67.598 267.722,67.086C266.883,66.596 266.154,65.91 265.529,65.033C265.528,65.032 265.528,51.537 265.528,51.537C266.21,50.527 267.029,49.645 267.986,48.89C268.932,48.144 270.025,47.774 271.264,47.774Z" style="fill:rgb(0,102,102);fill-rule:nonzero;"/>
                        </g>
                    </g>
                </g>
            </g>
        </g>
    </g>
</svg>
